<?xml version="1.0" standalone="no"?>
<!DOCTYPE svg PUBLIC "-//W3C//DTD SVG 20010904//EN"
 "http://www.w3.org/TR/2001/REC-SVG-20010904/DTD/svg10.dtd">
<svg version="1.0" xmlns="http://www.w3.org/2000/svg"
 width="3240.000000pt" height="3240.000000pt" viewBox="0 0 3240.000000 3240.000000"
 preserveAspectRatio="xMidYMid meet">

<g transform="translate(0.000000,3240.000000) scale(0.100000,-0.100000)"
fill="#000000" stroke="none">
<path d="M9910 26239 c-192 -23 -389 -107 -569 -244 -50 -38 -191 -156 -219
-182 -23 -22 -38 -15 -136 65 -52 42 -107 87 -123 100 -15 13 -47 39 -71 59
-37 31 -46 35 -71 27 -33 -10 -187 -189 -197 -229 -7 -29 9 -60 44 -82 33 -22
252 -204 269 -225 18 -21 2 -67 -57 -164 -240 -392 -288 -843 -119 -1122 68
-112 185 -213 322 -280 112 -55 171 -65 342 -59 119 4 154 10 230 34 99 33
297 130 390 193 93 62 106 71 167 120 80 63 125 90 154 90 30 0 52 -15 214
-147 69 -57 136 -112 150 -123 14 -12 86 -70 161 -130 75 -61 141 -121 147
-135 11 -23 8 -29 -29 -62 -65 -59 -179 -127 -263 -158 -109 -39 -239 -40
-339 -1 -37 14 -78 33 -90 41 -20 13 -25 11 -54 -13 -26 -22 -138 -155 -333
-394 -16 -20 -35 -48 -42 -63 -11 -24 -9 -28 18 -51 38 -32 148 -86 253 -124
71 -26 104 -32 211 -37 185 -9 337 19 485 88 22 10 56 25 75 34 97 42 296 194
430 328 62 63 82 78 98 73 23 -8 153 -111 165 -132 4 -8 22 -21 40 -30 18 -9
53 -36 79 -61 40 -36 52 -42 75 -37 33 8 28 3 126 121 106 126 105 137 -4 224
-45 35 -106 85 -136 112 -29 26 -57 47 -62 47 -5 0 -20 15 -35 34 l-26 35 22
38 c12 21 29 47 38 58 10 11 24 34 32 50 8 17 19 39 25 50 18 33 73 153 73
160 0 4 7 21 15 38 108 234 125 568 39 764 -32 72 -108 188 -149 227 -124 119
-188 159 -320 204 -145 48 -343 52 -470 7 -22 -7 -60 -19 -85 -25 -25 -7 -65
-21 -90 -32 -62 -28 -221 -117 -245 -138 -11 -10 -38 -27 -60 -38 -22 -11 -67
-42 -100 -69 -142 -115 -155 -123 -182 -112 -15 5 -43 24 -63 42 -20 18 -98
82 -174 142 -76 61 -164 134 -196 162 -33 29 -82 69 -110 89 -64 46 -76 68
-57 98 17 26 134 86 224 116 109 35 251 21 352 -36 64 -36 90 -32 132 19 19
23 42 53 51 67 9 14 35 45 58 70 23 25 63 71 88 104 26 32 68 83 94 115 38 45
48 63 48 93 0 33 -4 40 -37 58 -21 11 -66 36 -100 55 -35 19 -80 37 -100 41
-21 4 -49 12 -63 19 -29 15 -184 36 -250 34 -25 -1 -74 -5 -110 -10z m-622
-1078 c20 -10 71 -49 112 -86 41 -36 109 -92 150 -123 41 -31 98 -77 126 -102
28 -25 72 -61 97 -80 26 -19 46 -42 47 -51 0 -22 -32 -49 -131 -108 -175 -104
-287 -123 -396 -67 -63 31 -132 109 -155 173 -32 91 -20 235 28 338 20 44 72
125 80 125 3 0 21 -9 42 -19z m1792 -407 c133 -45 220 -164 228 -309 3 -68 0
-93 -25 -170 -16 -49 -42 -109 -56 -133 -24 -37 -31 -42 -55 -36 -15 4 -42 21
-61 38 -43 39 -44 39 -131 106 -40 30 -97 78 -128 105 -32 28 -100 85 -154
127 -53 42 -99 81 -102 87 -14 23 7 58 52 86 108 67 130 78 197 95 89 23 177
24 235 4z"/>
<path d="M20655 20649 c-16 -5 -64 -17 -105 -25 -104 -22 -272 -111 -396 -209
-111 -89 -241 -243 -349 -415 -15 -25 -36 -56 -45 -70 -10 -14 -21 -37 -25
-50 -4 -14 -16 -41 -26 -60 -10 -19 -34 -78 -54 -130 -20 -52 -40 -105 -45
-116 -21 -52 -69 -235 -79 -304 -6 -41 -18 -111 -27 -155 -11 -55 -17 -164
-21 -355 -5 -287 -5 -290 46 -625 22 -141 77 -336 127 -443 13 -29 24 -58 24
-65 0 -7 8 -28 19 -47 10 -19 24 -53 31 -75 20 -63 83 -170 150 -255 19 -25
52 -70 72 -100 68 -99 254 -278 349 -335 18 -11 47 -29 64 -39 87 -55 165 -87
282 -116 121 -31 135 -32 268 -27 194 6 328 43 480 132 87 50 208 146 270 214
33 36 77 83 97 104 32 33 112 151 155 230 66 117 104 194 116 234 9 26 28 80
43 118 14 39 37 108 49 155 13 47 27 96 33 110 5 14 13 50 17 80 3 30 13 80
21 110 40 155 43 718 4 921 -19 100 -37 159 -47 159 -3 0 -29 -21 -57 -47 -90
-83 -189 -158 -248 -191 -56 -31 -161 -64 -244 -77 -57 -9 -196 25 -290 71
-142 70 -294 253 -338 409 -8 28 -20 69 -27 92 -14 45 -14 44 25 253 21 113
66 200 140 275 83 82 127 111 226 145 110 38 139 43 257 41 60 -1 104 3 108 9
7 11 -55 92 -109 145 -127 122 -382 274 -495 295 -33 6 -82 17 -108 25 -55 17
-289 19 -338 4z"/>
<path d="M16555 20506 c-256 -73 -375 -139 -550 -305 -75 -72 -141 -145 -156
-174 -7 -12 -24 -36 -40 -54 -15 -18 -47 -65 -70 -105 -23 -40 -53 -89 -66
-109 -12 -19 -23 -41 -23 -49 0 -7 -11 -36 -24 -64 -108 -229 -184 -518 -217
-821 -13 -114 -5 -561 10 -640 6 -27 17 -94 26 -148 8 -55 19 -106 24 -115 5
-10 16 -53 26 -97 9 -44 22 -88 27 -98 5 -10 16 -42 23 -70 7 -29 21 -65 29
-82 9 -16 16 -33 16 -37 0 -4 11 -31 24 -60 14 -29 28 -67 32 -83 16 -67 81
-176 212 -355 60 -83 73 -99 152 -180 198 -204 405 -318 675 -372 86 -17 278
-5 375 25 100 31 209 74 230 92 8 7 35 23 59 36 24 13 54 30 67 37 12 7 66 54
120 105 53 50 102 95 109 100 8 4 24 24 36 45 12 20 39 57 59 82 44 55 100
138 100 149 0 5 8 19 19 32 10 13 35 62 55 109 21 47 45 103 55 125 11 22 24
58 31 80 7 22 16 45 21 51 5 6 14 35 20 65 6 30 17 65 24 79 7 14 18 61 25
105 7 44 20 121 30 170 43 206 49 604 15 865 -15 111 -41 200 -62 207 -7 3
-21 -10 -32 -27 -10 -18 -45 -51 -78 -73 -32 -23 -60 -44 -63 -48 -9 -12 -103
-60 -155 -79 -27 -10 -70 -26 -95 -35 -36 -13 -68 -16 -160 -12 -101 4 -124 8
-190 36 -201 85 -275 138 -344 241 -91 137 -110 205 -110 401 0 107 4 135 24
190 38 104 101 179 225 270 154 113 288 147 464 118 43 -6 67 -7 74 0 39 39
-316 349 -448 391 -22 7 -49 18 -60 25 -11 7 -63 25 -115 40 -83 25 -115 29
-250 32 -112 2 -169 -1 -205 -11z"/>
</g>
</svg>
